<svg width="125" height="69" viewBox="0 0 125 69" fill="none" xmlns="http://www.w3.org/2000/svg">
<g filter="url(#filter0_d_3_293)">
<path d="M6.99102 0.999999V7.96C6.99102 10.7 8.23102 12.07 10.711 12.07C11.651 12.07 12.531 11.95 13.351 11.71C14.171 11.45 14.841 11.11 15.361 10.69V0.999999H17.851V22H15.361V12.94C14.821 13.24 14.111 13.54 13.231 13.84C12.351 14.14 11.341 14.29 10.201 14.29C9.36102 14.29 8.59102 14.2 7.89102 14.02C7.19102 13.82 6.59102 13.5 6.09102 13.06C5.59102 12.6 5.20102 11.99 4.92102 11.23C4.64102 10.47 4.50102 9.53 4.50102 8.41V0.999999H6.99102ZM33.7393 8.08L33.9193 5.08H33.7393L31.9993 8.44L24.1993 22H21.8293V0.999999H24.3193V15.1L24.1693 18.07H24.3493L26.0593 14.71L33.8593 0.999999H36.2293V22H33.7393V8.08ZM51.7576 3.28C51.4176 3.14 51.0376 3.04 50.6176 2.98C50.2176 2.9 49.7276 2.86 49.1476 2.86C48.3276 2.86 47.5176 3.01 46.7176 3.31C45.9376 3.61 45.2376 4.1 44.6176 4.78C44.0176 5.46 43.5276 6.35 43.1476 7.45C42.7876 8.55 42.6076 9.9 42.6076 11.5C42.6076 12.94 42.7676 14.2 43.0876 15.28C43.4276 16.36 43.8876 17.26 44.4676 17.98C45.0676 18.7 45.7776 19.24 46.5976 19.6C47.4376 19.96 48.3676 20.14 49.3876 20.14C49.9076 20.14 50.3876 20.1 50.8276 20.02C51.2876 19.92 51.7076 19.79 52.0876 19.63V16.63H54.3076V20.68L54.3376 20.74C53.7376 21.2 52.9776 21.59 52.0576 21.91C51.1376 22.21 50.0176 22.36 48.6976 22.36C47.4376 22.36 46.2676 22.15 45.1876 21.73C44.1276 21.29 43.2076 20.63 42.4276 19.75C41.6476 18.87 41.0376 17.75 40.5976 16.39C40.1776 15.01 39.9676 13.38 39.9676 11.5C39.9676 9.54 40.2076 7.88 40.6876 6.52C41.1676 5.14 41.8176 4.02 42.6376 3.16C43.4576 2.28 44.4076 1.64 45.4876 1.24C46.5876 0.839999 47.7576 0.64 48.9976 0.64C49.6776 0.64 50.2676 0.669999 50.7676 0.729998C51.2676 0.769999 51.7076 0.839999 52.0876 0.939999C52.4676 1.02 52.7976 1.13 53.0776 1.27C53.3776 1.41 53.6676 1.57 53.9476 1.75H53.9776V6.49H51.7576V3.28ZM57.2059 0.999999H72.8059V6.49H70.5859V3.22H66.2359V19.78H69.5359V22H60.4459V19.78H63.7459V3.22H59.4259V6.49H57.2059V0.999999ZM87.7041 8.08L87.8841 5.08H87.7041L85.9641 8.44L78.1641 22H75.7941V0.999999H78.2841V15.1L78.1341 18.07H78.3141L80.0241 14.71L87.8241 0.999999H90.1941V22H87.7041V8.08ZM105.692 8.05L105.992 5.2H105.842L104.402 7.78L101.342 12.91H100.592L97.3824 7.75L96.0024 5.2H95.8524L96.2124 8.02V22H93.7824V0.999999H96.0924L101.072 8.98H101.132L105.932 0.999999H108.182V22H105.692V8.05ZM116.961 20.35C116.961 19.71 117.141 19.22 117.501 18.88C117.861 18.52 118.341 18.34 118.941 18.34C119.581 18.34 120.081 18.52 120.441 18.88C120.801 19.22 120.981 19.71 120.981 20.35C120.981 20.93 120.801 21.41 120.441 21.79C120.081 22.17 119.581 22.36 118.941 22.36C118.341 22.36 117.861 22.17 117.501 21.79C117.141 21.41 116.961 20.93 116.961 20.35ZM55.5376 60.23H53.4376V56H40.3576V60.23H38.2576V53.78H40.2676C40.3476 53.54 40.5276 53.01 40.8076 52.19C41.1076 51.37 41.4076 50.21 41.7076 48.71C42.0276 47.21 42.3176 45.33 42.5776 43.07C42.8376 40.81 42.9676 38.12 42.9676 35H53.2876V53.78H55.5376V60.23ZM50.7976 53.78V37.22H45.3076C45.2476 39.42 45.1176 41.4 44.9176 43.16C44.7376 44.92 44.5276 46.48 44.2876 47.84C44.0476 49.2 43.7976 50.37 43.5376 51.35C43.2976 52.33 43.0876 53.14 42.9076 53.78H50.7976ZM57.4459 45.5C57.4459 42.02 58.0559 39.34 59.2759 37.46C60.5159 35.58 62.4159 34.64 64.9759 34.64C66.3759 34.64 67.5559 34.9 68.5159 35.42C69.4959 35.94 70.2859 36.68 70.8859 37.64C71.4859 38.58 71.9159 39.72 72.1759 41.06C72.4359 42.38 72.5659 43.86 72.5659 45.5C72.5659 48.98 71.9459 51.66 70.7059 53.54C69.4859 55.42 67.5759 56.36 64.9759 56.36C63.5959 56.36 62.4259 56.1 61.4659 55.58C60.5059 55.06 59.7259 54.33 59.1259 53.39C58.5259 52.43 58.0959 51.29 57.8359 49.97C57.5759 48.63 57.4459 47.14 57.4459 45.5ZM60.0859 45.5C60.0859 46.66 60.1559 47.76 60.2959 48.8C60.4559 49.84 60.7259 50.76 61.1059 51.56C61.4859 52.34 61.9859 52.97 62.6059 53.45C63.2259 53.91 64.0159 54.14 64.9759 54.14C66.6959 54.14 67.9459 53.44 68.7259 52.04C69.5259 50.64 69.9259 48.46 69.9259 45.5C69.9259 44.36 69.8459 43.27 69.6859 42.23C69.5459 41.17 69.2859 40.25 68.9059 39.47C68.5259 38.67 68.0159 38.04 67.3759 37.58C66.7359 37.1 65.9359 36.86 64.9759 36.86C63.2759 36.86 62.0359 37.57 61.2559 38.99C60.4759 40.39 60.0859 42.56 60.0859 45.5ZM87.7041 42.05L88.0041 39.2H87.8541L86.4141 41.78L83.3541 46.91H82.6041L79.3941 41.75L78.0141 39.2H77.8641L78.2241 42.02V56H75.7941V35H78.1041L83.0841 42.98H83.1441L87.9441 35H90.1941V56H87.7041V42.05Z" fill="#1E1E1E"/>
</g>
<defs>
<filter id="filter0_d_3_293" x="0.501038" y="0.640015" width="124.48" height="67.59" filterUnits="userSpaceOnUse" color-interpolation-filters="sRGB">
<feFlood flood-opacity="0" result="BackgroundImageFix"/>
<feColorMatrix in="SourceAlpha" type="matrix" values="0 0 0 0 0 0 0 0 0 0 0 0 0 0 0 0 0 0 127 0" result="hardAlpha"/>
<feOffset dy="4"/>
<feGaussianBlur stdDeviation="2"/>
<feComposite in2="hardAlpha" operator="out"/>
<feColorMatrix type="matrix" values="0 0 0 0 0 0 0 0 0 0 0 0 0 0 0 0 0 0 0.25 0"/>
<feBlend mode="normal" in2="BackgroundImageFix" result="effect1_dropShadow_3_293"/>
<feBlend mode="normal" in="SourceGraphic" in2="effect1_dropShadow_3_293" result="shape"/>
</filter>
</defs>
</svg>
